{
	"asset":{
		"generator":"Khronos glTF Blender I/O v3.5.30",
		"version":"2.0"
	},
	"scene":0,
	"scenes":[
		{
			"name":"Scene",
			"nodes":[
				0
			]
		}
	],
	"nodes":[
		{
			"mesh":0,
			"name":"cylinder"
		}
	],
	"materials":[
		{
			"name":"granite",
			"normalTexture":{
				"index":0
			},
			"occlusionTexture":{
				"index":1
			},
			"pbrMetallicRoughness":{
				"baseColorTexture":{
					"index":2
				},
				"metallicRoughnessTexture":{
					"index":1
				}
			}
		}
	],
	"meshes":[
		{
			"name":"cylinder",
			"primitives":[
				{
					"attributes":{
						"POSITION":0,
						"TEXCOORD_0":1,
						"NORMAL":2,
						"TANGENT":3
					},
					"indices":4,
					"material":0
				}
			]
		}
	],
	"textures":[
		{
			"sampler":0,
			"source":0
		},
		{
			"sampler":0,
			"source":1
		},
		{
			"sampler":0,
			"source":2
		}
	],
	"images":[
		{
			"mimeType":"image/png",
			"name":"fleshy_granite1_Normal-ogl",
			"uri":"../../textures/fleshy_granite1_Normal-ogl.png"
		},
		{
			"mimeType":"image/png",
			"name":"fleshy_granite1_ao-fleshy_granite1_roughness-fleshy_granite1_metallic",
			"uri":"../../textures/fleshy_granite1_ao-fleshy_granite1_roughness-fleshy_granite1_metallic.png"
		},
		{
			"mimeType":"image/png",
			"name":"fleshy_granite1_albedo",
			"uri":"../../textures/fleshy_granite1_albedo.png"
		}
	],
	"accessors":[
		{
			"bufferView":0,
			"componentType":5126,
			"count":627,
			"max":[
				1,
				1.0932903289794922,
				1
			],
			"min":[
				-1,
				-1.0932903289794922,
				-1
			],
			"type":"VEC3"
		},
		{
			"bufferView":1,
			"componentType":5126,
			"count":627,
			"type":"VEC2"
		},
		{
			"bufferView":2,
			"componentType":5126,
			"count":627,
			"type":"VEC3"
		},
		{
			"bufferView":3,
			"componentType":5126,
			"count":627,
			"type":"VEC4"
		},
		{
			"bufferView":4,
			"componentType":5123,
			"count":3456,
			"type":"SCALAR"
		}
	],
	"bufferViews":[
		{
			"buffer":0,
			"byteLength":7524,
			"byteOffset":0,
			"target":34962
		},
		{
			"buffer":0,
			"byteLength":5016,
			"byteOffset":7524,
			"target":34962
		},
		{
			"buffer":0,
			"byteLength":7524,
			"byteOffset":12540,
			"target":34962
		},
		{
			"buffer":0,
			"byteLength":10032,
			"byteOffset":20064,
			"target":34962
		},
		{
			"buffer":0,
			"byteLength":6912,
			"byteOffset":30096,
			"target":34963
		}
	],
	"samplers":[
		{
			"magFilter":9729,
			"minFilter":9987
		}
	],
	"buffers":[
		{
			"byteLength":37008,
			"uri":"debug_model.bin"
		}
	]
}
