{
	"asset":{
		"generator":"Khronos glTF Blender I/O v3.5.30",
		"version":"2.0"
	},
	"scene":0,
	"scenes":[
		{
			"name":"debug_models",
			"nodes":[
				0,
				1,
				2,
				3,
				4,
				5,
				6
			]
		}
	],
	"nodes":[
		{
			"mesh":0,
			"name":"granite_cylinder"
		},
		{
			"mesh":1,
			"name":"metal_cylinder",
			"translation":[
				3,
				0,
				0
			]
		},
		{
			"mesh":2,
			"name":"tiles_cylinder",
			"rotation":[
				0.07708580046892166,
				-0.06891781836748123,
				-0.09238044172525406,
				0.9903404116630554
			],
			"scale":[
				1.1233402490615845,
				1.1233402490615845,
				1.123340129852295
			],
			"translation":[
				3,
				0,
				-3
			]
		},
		{
			"mesh":3,
			"name":"bricks_cylinder",
			"translation":[
				0,
				0,
				-3
			]
		},
		{
			"mesh":4,
			"name":"mixed_cylinder",
			"translation":[
				3,
				0,
				3
			]
		},
		{
			"mesh":0,
			"name":"granite_cylinder.001",
			"translation":[
				0,
				0,
				3
			]
		},
		{
			"mesh":5,
			"name":"mixed_cylinder2",
			"translation":[
				6,
				0,
				3
			]
		}
	],
	"materials":[
		{
			"name":"granite",
			"normalTexture":{
				"index":0
			},
			"occlusionTexture":{
				"index":1
			},
			"pbrMetallicRoughness":{
				"baseColorTexture":{
					"index":2
				},
				"metallicRoughnessTexture":{
					"index":1
				}
			}
		},
		{
			"name":"rusty_metal",
			"normalTexture":{
				"index":3
			},
			"pbrMetallicRoughness":{
				"baseColorTexture":{
					"index":4
				},
				"metallicRoughnessTexture":{
					"index":5
				}
			}
		},
		{
			"name":"tiles",
			"normalTexture":{
				"index":6
			},
			"occlusionTexture":{
				"index":7
			},
			"pbrMetallicRoughness":{
				"baseColorTexture":{
					"index":8
				},
				"metallicRoughnessTexture":{
					"index":7
				}
			}
		},
		{
			"name":"bricks",
			"normalTexture":{
				"index":9
			},
			"occlusionTexture":{
				"index":10
			},
			"pbrMetallicRoughness":{
				"baseColorTexture":{
					"index":11
				},
				"metallicRoughnessTexture":{
					"index":10
				}
			}
		}
	],
	"meshes":[
		{
			"name":"cylinder_mesh",
			"primitives":[
				{
					"attributes":{
						"POSITION":0,
						"TEXCOORD_0":1,
						"NORMAL":2,
						"TANGENT":3
					},
					"indices":4,
					"material":0
				}
			]
		},
		{
			"name":"cylinder_mesh",
			"primitives":[
				{
					"attributes":{
						"POSITION":0,
						"TEXCOORD_0":1,
						"NORMAL":2,
						"TANGENT":3
					},
					"indices":4,
					"material":1
				}
			]
		},
		{
			"name":"cylinder_mesh",
			"primitives":[
				{
					"attributes":{
						"POSITION":0,
						"TEXCOORD_0":1,
						"NORMAL":2,
						"TANGENT":3
					},
					"indices":4,
					"material":2
				}
			]
		},
		{
			"name":"cylinder_mesh",
			"primitives":[
				{
					"attributes":{
						"POSITION":0,
						"TEXCOORD_0":1,
						"NORMAL":2,
						"TANGENT":3
					},
					"indices":4,
					"material":3
				}
			]
		},
		{
			"name":"cylinder_mesh.001",
			"primitives":[
				{
					"attributes":{
						"POSITION":5,
						"TEXCOORD_0":6,
						"NORMAL":7,
						"TANGENT":8
					},
					"indices":9,
					"material":1
				},
				{
					"attributes":{
						"POSITION":10,
						"TEXCOORD_0":11,
						"NORMAL":12,
						"TANGENT":13
					},
					"indices":14,
					"material":2
				}
			]
		},
		{
			"name":"cylinder_mesh.001",
			"primitives":[
				{
					"attributes":{
						"POSITION":5,
						"TEXCOORD_0":6,
						"NORMAL":7,
						"TANGENT":8
					},
					"indices":9,
					"material":1
				},
				{
					"attributes":{
						"POSITION":10,
						"TEXCOORD_0":11,
						"NORMAL":12,
						"TANGENT":13
					},
					"indices":14,
					"material":0
				}
			]
		}
	],
	"textures":[
		{
			"sampler":0,
			"source":0
		},
		{
			"sampler":0,
			"source":1
		},
		{
			"sampler":0,
			"source":2
		},
		{
			"sampler":0,
			"source":3
		},
		{
			"sampler":0,
			"source":4
		},
		{
			"sampler":0,
			"source":5
		},
		{
			"sampler":0,
			"source":6
		},
		{
			"sampler":0,
			"source":7
		},
		{
			"sampler":0,
			"source":8
		},
		{
			"sampler":0,
			"source":9
		},
		{
			"sampler":0,
			"source":10
		},
		{
			"sampler":0,
			"source":11
		}
	],
	"images":[
		{
			"mimeType":"image/png",
			"name":"fleshy_granite1_Normal-ogl",
			"uri":"../../textures/fleshy_granite1_Normal-ogl.png"
		},
		{
			"mimeType":"image/png",
			"name":"fleshy_granite1_ao-fleshy_granite1_roughness-fleshy_granite1_metallic",
			"uri":"../../textures/fleshy_granite1_ao-fleshy_granite1_roughness-fleshy_granite1_metallic.png"
		},
		{
			"mimeType":"image/png",
			"name":"fleshy_granite1_albedo",
			"uri":"../../textures/fleshy_granite1_albedo.png"
		},
		{
			"mimeType":"image/png",
			"name":"rustediron2_normal",
			"uri":"../../textures/rustediron2_normal.png"
		},
		{
			"mimeType":"image/png",
			"name":"rustediron2_basecolor",
			"uri":"../../textures/rustediron2_basecolor.png"
		},
		{
			"mimeType":"image/png",
			"name":"rusty_metal_metallic-rusty_metal_roughness",
			"uri":"../../textures/rusty_metal_metallic-rusty_metal_roughness.png"
		},
		{
			"mimeType":"image/png",
			"name":"granite-tile_normal-ogl",
			"uri":"../../textures/granite-tile_normal-ogl.png"
		},
		{
			"mimeType":"image/png",
			"name":"granite-tile_ao-granite-tile_roughness-granite-tile_metallic",
			"uri":"../../textures/granite-tile_ao-granite-tile_roughness-granite-tile_metallic.png"
		},
		{
			"mimeType":"image/png",
			"name":"granite-tile_albedo",
			"uri":"../../textures/granite-tile_albedo.png"
		},
		{
			"mimeType":"image/png",
			"name":"redbricks2b-normal",
			"uri":"../../textures/redbricks2b-normal.png"
		},
		{
			"mimeType":"image/png",
			"name":"redbricks2b-ao2048-redbricks2b-rough2048-redbricks2b-metalness",
			"uri":"../../textures/redbricks2b-ao2048-redbricks2b-rough2048-redbricks2b-metalness.png"
		},
		{
			"mimeType":"image/png",
			"name":"redbricks2b-albedo",
			"uri":"../../textures/redbricks2b-albedo.png"
		}
	],
	"accessors":[
		{
			"bufferView":0,
			"componentType":5126,
			"count":627,
			"max":[
				1,
				1.0932903289794922,
				1
			],
			"min":[
				-1,
				-1.0932903289794922,
				-1
			],
			"type":"VEC3"
		},
		{
			"bufferView":1,
			"componentType":5126,
			"count":627,
			"type":"VEC2"
		},
		{
			"bufferView":2,
			"componentType":5126,
			"count":627,
			"type":"VEC3"
		},
		{
			"bufferView":3,
			"componentType":5126,
			"count":627,
			"type":"VEC4"
		},
		{
			"bufferView":4,
			"componentType":5123,
			"count":3456,
			"type":"SCALAR"
		},
		{
			"bufferView":5,
			"componentType":5126,
			"count":627,
			"max":[
				1,
				1.0932903289794922,
				1
			],
			"min":[
				-1,
				-1.0932903289794922,
				-1
			],
			"type":"VEC3"
		},
		{
			"bufferView":6,
			"componentType":5126,
			"count":627,
			"type":"VEC2"
		},
		{
			"bufferView":7,
			"componentType":5126,
			"count":627,
			"type":"VEC3"
		},
		{
			"bufferView":8,
			"componentType":5126,
			"count":627,
			"type":"VEC4"
		},
		{
			"bufferView":9,
			"componentType":5123,
			"count":3264,
			"type":"SCALAR"
		},
		{
			"bufferView":10,
			"componentType":5126,
			"count":66,
			"max":[
				1,
				1,
				1
			],
			"min":[
				-1,
				0,
				-1
			],
			"type":"VEC3"
		},
		{
			"bufferView":11,
			"componentType":5126,
			"count":66,
			"type":"VEC2"
		},
		{
			"bufferView":12,
			"componentType":5126,
			"count":66,
			"type":"VEC3"
		},
		{
			"bufferView":13,
			"componentType":5126,
			"count":66,
			"type":"VEC4"
		},
		{
			"bufferView":14,
			"componentType":5123,
			"count":192,
			"type":"SCALAR"
		}
	],
	"bufferViews":[
		{
			"buffer":0,
			"byteLength":7524,
			"byteOffset":0,
			"target":34962
		},
		{
			"buffer":0,
			"byteLength":5016,
			"byteOffset":7524,
			"target":34962
		},
		{
			"buffer":0,
			"byteLength":7524,
			"byteOffset":12540,
			"target":34962
		},
		{
			"buffer":0,
			"byteLength":10032,
			"byteOffset":20064,
			"target":34962
		},
		{
			"buffer":0,
			"byteLength":6912,
			"byteOffset":30096,
			"target":34963
		},
		{
			"buffer":0,
			"byteLength":7524,
			"byteOffset":37008,
			"target":34962
		},
		{
			"buffer":0,
			"byteLength":5016,
			"byteOffset":44532,
			"target":34962
		},
		{
			"buffer":0,
			"byteLength":7524,
			"byteOffset":49548,
			"target":34962
		},
		{
			"buffer":0,
			"byteLength":10032,
			"byteOffset":57072,
			"target":34962
		},
		{
			"buffer":0,
			"byteLength":6528,
			"byteOffset":67104,
			"target":34963
		},
		{
			"buffer":0,
			"byteLength":792,
			"byteOffset":73632,
			"target":34962
		},
		{
			"buffer":0,
			"byteLength":528,
			"byteOffset":74424,
			"target":34962
		},
		{
			"buffer":0,
			"byteLength":792,
			"byteOffset":74952,
			"target":34962
		},
		{
			"buffer":0,
			"byteLength":1056,
			"byteOffset":75744,
			"target":34962
		},
		{
			"buffer":0,
			"byteLength":384,
			"byteOffset":76800,
			"target":34963
		}
	],
	"samplers":[
		{
			"magFilter":9729,
			"minFilter":9987
		}
	],
	"buffers":[
		{
			"byteLength":77184,
			"uri":"debug_model2.bin"
		}
	]
}
