{
	"asset":{
		"generator":"Khronos glTF Blender I/O v3.5.30",
		"version":"2.0"
	},
	"scene":0,
	"scenes":[
		{
			"name":"Scene",
			"nodes":[
				0,
				1,
				2,
				3,
				4,
				5,
				6
			]
		}
	],
	"nodes":[
		{
			"mesh":0,
			"name":"Static-1",
			"translation":[
				-16.637664794921875,
				10.027755737304688,
				-0.010101318359375
			]
		},
		{
			"mesh":1,
			"name":"Static-4",
			"scale":[
				13.417807579040527,
				1,
				1
			],
			"translation":[
				3.0517578125e-05,
				0,
				0
			]
		},
		{
			"mesh":2,
			"name":"Static-3",
			"translation":[
				-5.79681396484375,
				4.273370742797852,
				0
			]
		},
		{
			"mesh":3,
			"name":"Static-2",
			"translation":[
				-11.293960571289062,
				6.98098087310791,
				0
			]
		},
		{
			"mesh":4,
			"name":"Background-1",
			"rotation":[
				0,
				0,
				-0.7071068286895752,
				0.7071068286895752
			],
			"scale":[
				13.417807579040527,
				1,
				1
			],
			"translation":[
				-0.23681640625,
				7.538259506225586,
				-22.070770263671875
			]
		},
		{
			"mesh":5,
			"name":"Player",
			"translation":[
				0,
				2.7227420806884766,
				0
			]
		},
		{
			"mesh":6,
			"name":"Background-2",
			"translation":[
				210.32034301757812,
				21.323184967041016,
				-285.9541015625
			]
		}
	],
	"materials":[
		{
			"name":"granite",
			"normalTexture":{
				"index":0
			},
			"occlusionTexture":{
				"index":1
			},
			"pbrMetallicRoughness":{
				"baseColorTexture":{
					"index":2
				},
				"metallicRoughnessTexture":{
					"index":1
				}
			}
		},
		{
			"name":"MarbleRedDark.001",
			"normalTexture":{
				"index":3
			},
			"occlusionTexture":{
				"index":4
			},
			"pbrMetallicRoughness":{
				"baseColorTexture":{
					"index":5
				},
				"metallicRoughnessTexture":{
					"index":6
				}
			}
		},
		{
			"name":"MarbleRed.001",
			"normalTexture":{
				"index":7
			},
			"occlusionTexture":{
				"index":8
			},
			"pbrMetallicRoughness":{
				"baseColorTexture":{
					"index":9
				},
				"metallicRoughnessTexture":{
					"index":10
				}
			}
		},
		{
			"name":"MarbleSpeckled.001",
			"normalTexture":{
				"index":11
			},
			"pbrMetallicRoughness":{
				"baseColorTexture":{
					"index":12
				},
				"metallicRoughnessTexture":{
					"index":13
				}
			}
		},
		{
			"doubleSided":true,
			"name":"Material.001",
			"pbrMetallicRoughness":{
				"baseColorFactor":[
					0.009376691654324532,
					0.21994876861572266,
					0.03261496126651764,
					1
				],
				"metallicFactor":0,
				"roughnessFactor":0.5
			}
		}
	],
	"meshes":[
		{
			"name":"cylinder",
			"primitives":[
				{
					"attributes":{
						"POSITION":0,
						"TEXCOORD_0":1,
						"NORMAL":2,
						"TANGENT":3
					},
					"indices":4,
					"material":0
				}
			]
		},
		{
			"name":"Cube.001",
			"primitives":[
				{
					"attributes":{
						"POSITION":5,
						"TEXCOORD_0":6,
						"NORMAL":7,
						"TANGENT":8
					},
					"indices":9,
					"material":0
				}
			]
		},
		{
			"name":"Cube.002",
			"primitives":[
				{
					"attributes":{
						"POSITION":10,
						"TEXCOORD_0":11,
						"NORMAL":12,
						"TANGENT":13
					},
					"indices":9,
					"material":0
				}
			]
		},
		{
			"name":"Cube.003",
			"primitives":[
				{
					"attributes":{
						"POSITION":14,
						"TEXCOORD_0":15,
						"NORMAL":16,
						"TANGENT":17
					},
					"indices":9,
					"material":0
				}
			]
		},
		{
			"name":"Cube.005",
			"primitives":[
				{
					"attributes":{
						"POSITION":18,
						"TEXCOORD_0":19,
						"NORMAL":20,
						"TANGENT":21
					},
					"indices":9,
					"material":0
				}
			]
		},
		{
			"name":"Icosphere.002",
			"primitives":[
				{
					"attributes":{
						"POSITION":22,
						"TEXCOORD_0":23,
						"NORMAL":24,
						"TANGENT":25
					},
					"indices":26,
					"material":1
				},
				{
					"attributes":{
						"POSITION":27,
						"TEXCOORD_0":28,
						"NORMAL":29,
						"TANGENT":30
					},
					"indices":31,
					"material":2
				},
				{
					"attributes":{
						"POSITION":32,
						"TEXCOORD_0":33,
						"NORMAL":34,
						"TANGENT":35
					},
					"indices":36,
					"material":3
				}
			]
		},
		{
			"name":"Plane.002",
			"primitives":[
				{
					"attributes":{
						"POSITION":37,
						"TEXCOORD_0":38,
						"NORMAL":39,
						"TANGENT":40
					},
					"indices":41,
					"material":4
				}
			]
		}
	],
	"textures":[
		{
			"sampler":0,
			"source":0
		},
		{
			"sampler":0,
			"source":1
		},
		{
			"sampler":0,
			"source":2
		},
		{
			"sampler":0,
			"source":3
		},
		{
			"sampler":0,
			"source":4
		},
		{
			"sampler":0,
			"source":5
		},
		{
			"sampler":0,
			"source":6
		},
		{
			"sampler":0,
			"source":3
		},
		{
			"sampler":0,
			"source":4
		},
		{
			"sampler":0,
			"source":7
		},
		{
			"sampler":0,
			"source":6
		},
		{
			"sampler":0,
			"source":3
		},
		{
			"sampler":0,
			"source":8
		},
		{
			"sampler":0,
			"source":9
		}
	],
	"images":[
		{
			"mimeType":"image/png",
			"name":"fleshy_granite1_Normal-ogl",
			"uri":"../../textures/fleshy_granite1_Normal-ogl.png"
		},
		{
			"mimeType":"image/png",
			"name":"fleshy_granite1_ao_png-fleshy_granite1_Roughness-fleshy_granite1_Metallic",
			"uri":"../../textures/fleshy_granite1_ao_png-fleshy_granite1_Roughness-fleshy_granite1_Metallic.png"
		},
		{
			"mimeType":"image/png",
			"name":"fleshy_granite1_albedo",
			"uri":"../../textures/fleshy_granite1_albedo.png"
		},
		{
			"mimeType":"image/jpeg",
			"name":"Obsidian_001_normal",
			"uri":"../../textures/Obsidian_001_normal.jpg"
		},
		{
			"mimeType":"image/jpeg",
			"name":"Marble_Red_004_ambientOcclusion",
			"uri":"../../textures/Marble_Red_004_ambientOcclusion.jpg"
		},
		{
			"mimeType":"image/jpeg",
			"name":"Marble_Red_004_basecolor",
			"uri":"../../textures/Marble_Red_004_basecolor.jpg"
		},
		{
			"mimeType":"image/png",
			"name":"marble-speckled-metalness-Marble_Red_004_roughness",
			"uri":"../../textures/marble-speckled-metalness-Marble_Red_004_roughness.png"
		},
		{
			"mimeType":"image/jpeg",
			"name":"Marble_Red_004_basecolor2",
			"uri":"../../textures/Marble_Red_004_basecolor2.jpg"
		},
		{
			"mimeType":"image/png",
			"name":"marble-speckled-albedo",
			"uri":"../../textures/marble-speckled-albedo.png"
		},
		{
			"mimeType":"image/png",
			"name":"marble-speckled-metalness-marble-speckled-roughness",
			"uri":"../../textures/marble-speckled-metalness-marble-speckled-roughness.png"
		}
	],
	"accessors":[
		{
			"bufferView":0,
			"componentType":5126,
			"count":627,
			"max":[
				1.02459716796875,
				1.093374252319336,
				1.010101318359375
			],
			"min":[
				-0.97540283203125,
				-1.0932064056396484,
				-0.989898681640625
			],
			"type":"VEC3"
		},
		{
			"bufferView":1,
			"componentType":5126,
			"count":627,
			"type":"VEC2"
		},
		{
			"bufferView":2,
			"componentType":5126,
			"count":627,
			"type":"VEC3"
		},
		{
			"bufferView":3,
			"componentType":5126,
			"count":627,
			"type":"VEC4"
		},
		{
			"bufferView":4,
			"componentType":5123,
			"count":3456,
			"type":"SCALAR"
		},
		{
			"bufferView":5,
			"componentType":5126,
			"count":24,
			"max":[
				0.9999980926513672,
				0.9999980926513672,
				1
			],
			"min":[
				-1.0000019073486328,
				-1.0000019073486328,
				-1
			],
			"type":"VEC3"
		},
		{
			"bufferView":6,
			"componentType":5126,
			"count":24,
			"type":"VEC2"
		},
		{
			"bufferView":7,
			"componentType":5126,
			"count":24,
			"type":"VEC3"
		},
		{
			"bufferView":8,
			"componentType":5126,
			"count":24,
			"type":"VEC4"
		},
		{
			"bufferView":9,
			"componentType":5123,
			"count":36,
			"type":"SCALAR"
		},
		{
			"bufferView":10,
			"componentType":5126,
			"count":24,
			"max":[
				1.00006103515625,
				0.9999980926513672,
				1
			],
			"min":[
				-0.99993896484375,
				-1.0000019073486328,
				-1
			],
			"type":"VEC3"
		},
		{
			"bufferView":11,
			"componentType":5126,
			"count":24,
			"type":"VEC2"
		},
		{
			"bufferView":12,
			"componentType":5126,
			"count":24,
			"type":"VEC3"
		},
		{
			"bufferView":13,
			"componentType":5126,
			"count":24,
			"type":"VEC4"
		},
		{
			"bufferView":14,
			"componentType":5126,
			"count":24,
			"max":[
				0.9999542236328125,
				0.9999971389770508,
				1
			],
			"min":[
				-1.0000457763671875,
				-1.0000028610229492,
				-1
			],
			"type":"VEC3"
		},
		{
			"bufferView":15,
			"componentType":5126,
			"count":24,
			"type":"VEC2"
		},
		{
			"bufferView":16,
			"componentType":5126,
			"count":24,
			"type":"VEC3"
		},
		{
			"bufferView":17,
			"componentType":5126,
			"count":24,
			"type":"VEC4"
		},
		{
			"bufferView":18,
			"componentType":5126,
			"count":24,
			"max":[
				1,
				0.9999847412109375,
				1
			],
			"min":[
				-0.9999998807907104,
				-1.0000152587890625,
				-1
			],
			"type":"VEC3"
		},
		{
			"bufferView":19,
			"componentType":5126,
			"count":24,
			"type":"VEC2"
		},
		{
			"bufferView":20,
			"componentType":5126,
			"count":24,
			"type":"VEC3"
		},
		{
			"bufferView":21,
			"componentType":5126,
			"count":24,
			"type":"VEC4"
		},
		{
			"bufferView":22,
			"componentType":5126,
			"count":4087,
			"max":[
				0.7179718017578125,
				0.6621856689453125,
				0.702606201171875
			],
			"min":[
				-0.7184295654296875,
				-0.933502197265625,
				-0.71234130859375
			],
			"type":"VEC3"
		},
		{
			"bufferView":23,
			"componentType":5126,
			"count":4087,
			"type":"VEC2"
		},
		{
			"bufferView":24,
			"componentType":5126,
			"count":4087,
			"type":"VEC3"
		},
		{
			"bufferView":25,
			"componentType":5126,
			"count":4087,
			"type":"VEC4"
		},
		{
			"bufferView":26,
			"componentType":5123,
			"count":4122,
			"type":"SCALAR"
		},
		{
			"bufferView":27,
			"componentType":5126,
			"count":731430,
			"max":[
				0.9959869384765625,
				0.9266757965087891,
				0.98455810546875
			],
			"min":[
				-0.9959869384765625,
				-0.2661552429199219,
				-0.98455810546875
			],
			"type":"VEC3"
		},
		{
			"bufferView":28,
			"componentType":5126,
			"count":731430,
			"type":"VEC2"
		},
		{
			"bufferView":29,
			"componentType":5126,
			"count":731430,
			"type":"VEC3"
		},
		{
			"bufferView":30,
			"componentType":5126,
			"count":731430,
			"type":"VEC4"
		},
		{
			"bufferView":31,
			"componentType":5125,
			"count":731430,
			"type":"SCALAR"
		},
		{
			"bufferView":32,
			"componentType":5126,
			"count":12474,
			"max":[
				0.970428466796875,
				0.933502197265625,
				0.977386474609375
			],
			"min":[
				-0.9938507080078125,
				-0.24977874755859375,
				-0.93408203125
			],
			"type":"VEC3"
		},
		{
			"bufferView":33,
			"componentType":5126,
			"count":12474,
			"type":"VEC2"
		},
		{
			"bufferView":34,
			"componentType":5126,
			"count":12474,
			"type":"VEC3"
		},
		{
			"bufferView":35,
			"componentType":5126,
			"count":12474,
			"type":"VEC4"
		},
		{
			"bufferView":36,
			"componentType":5123,
			"count":12474,
			"type":"SCALAR"
		},
		{
			"bufferView":37,
			"componentType":5126,
			"count":35940,
			"max":[
				4627.0478515625,
				77.69173431396484,
				344.30816650390625
			],
			"min":[
				-2103.203369140625,
				-25.072771072387695,
				-252.58164978027344
			],
			"type":"VEC3"
		},
		{
			"bufferView":38,
			"componentType":5126,
			"count":35940,
			"type":"VEC2"
		},
		{
			"bufferView":39,
			"componentType":5126,
			"count":35940,
			"type":"VEC3"
		},
		{
			"bufferView":40,
			"componentType":5126,
			"count":35940,
			"type":"VEC4"
		},
		{
			"bufferView":41,
			"componentType":5123,
			"count":206976,
			"type":"SCALAR"
		}
	],
	"bufferViews":[
		{
			"buffer":0,
			"byteLength":7524,
			"byteOffset":0,
			"target":34962
		},
		{
			"buffer":0,
			"byteLength":5016,
			"byteOffset":7524,
			"target":34962
		},
		{
			"buffer":0,
			"byteLength":7524,
			"byteOffset":12540,
			"target":34962
		},
		{
			"buffer":0,
			"byteLength":10032,
			"byteOffset":20064,
			"target":34962
		},
		{
			"buffer":0,
			"byteLength":6912,
			"byteOffset":30096,
			"target":34963
		},
		{
			"buffer":0,
			"byteLength":288,
			"byteOffset":37008,
			"target":34962
		},
		{
			"buffer":0,
			"byteLength":192,
			"byteOffset":37296,
			"target":34962
		},
		{
			"buffer":0,
			"byteLength":288,
			"byteOffset":37488,
			"target":34962
		},
		{
			"buffer":0,
			"byteLength":384,
			"byteOffset":37776,
			"target":34962
		},
		{
			"buffer":0,
			"byteLength":72,
			"byteOffset":38160,
			"target":34963
		},
		{
			"buffer":0,
			"byteLength":288,
			"byteOffset":38232,
			"target":34962
		},
		{
			"buffer":0,
			"byteLength":192,
			"byteOffset":38520,
			"target":34962
		},
		{
			"buffer":0,
			"byteLength":288,
			"byteOffset":38712,
			"target":34962
		},
		{
			"buffer":0,
			"byteLength":384,
			"byteOffset":39000,
			"target":34962
		},
		{
			"buffer":0,
			"byteLength":288,
			"byteOffset":39384,
			"target":34962
		},
		{
			"buffer":0,
			"byteLength":192,
			"byteOffset":39672,
			"target":34962
		},
		{
			"buffer":0,
			"byteLength":288,
			"byteOffset":39864,
			"target":34962
		},
		{
			"buffer":0,
			"byteLength":384,
			"byteOffset":40152,
			"target":34962
		},
		{
			"buffer":0,
			"byteLength":288,
			"byteOffset":40536,
			"target":34962
		},
		{
			"buffer":0,
			"byteLength":192,
			"byteOffset":40824,
			"target":34962
		},
		{
			"buffer":0,
			"byteLength":288,
			"byteOffset":41016,
			"target":34962
		},
		{
			"buffer":0,
			"byteLength":384,
			"byteOffset":41304,
			"target":34962
		},
		{
			"buffer":0,
			"byteLength":49044,
			"byteOffset":41688,
			"target":34962
		},
		{
			"buffer":0,
			"byteLength":32696,
			"byteOffset":90732,
			"target":34962
		},
		{
			"buffer":0,
			"byteLength":49044,
			"byteOffset":123428,
			"target":34962
		},
		{
			"buffer":0,
			"byteLength":65392,
			"byteOffset":172472,
			"target":34962
		},
		{
			"buffer":0,
			"byteLength":8244,
			"byteOffset":237864,
			"target":34963
		},
		{
			"buffer":0,
			"byteLength":8777160,
			"byteOffset":246108,
			"target":34962
		},
		{
			"buffer":0,
			"byteLength":5851440,
			"byteOffset":9023268,
			"target":34962
		},
		{
			"buffer":0,
			"byteLength":8777160,
			"byteOffset":14874708,
			"target":34962
		},
		{
			"buffer":0,
			"byteLength":11702880,
			"byteOffset":23651868,
			"target":34962
		},
		{
			"buffer":0,
			"byteLength":2925720,
			"byteOffset":35354748,
			"target":34963
		},
		{
			"buffer":0,
			"byteLength":149688,
			"byteOffset":38280468,
			"target":34962
		},
		{
			"buffer":0,
			"byteLength":99792,
			"byteOffset":38430156,
			"target":34962
		},
		{
			"buffer":0,
			"byteLength":149688,
			"byteOffset":38529948,
			"target":34962
		},
		{
			"buffer":0,
			"byteLength":199584,
			"byteOffset":38679636,
			"target":34962
		},
		{
			"buffer":0,
			"byteLength":24948,
			"byteOffset":38879220,
			"target":34963
		},
		{
			"buffer":0,
			"byteLength":431280,
			"byteOffset":38904168,
			"target":34962
		},
		{
			"buffer":0,
			"byteLength":287520,
			"byteOffset":39335448,
			"target":34962
		},
		{
			"buffer":0,
			"byteLength":431280,
			"byteOffset":39622968,
			"target":34962
		},
		{
			"buffer":0,
			"byteLength":575040,
			"byteOffset":40054248,
			"target":34962
		},
		{
			"buffer":0,
			"byteLength":413952,
			"byteOffset":40629288,
			"target":34963
		}
	],
	"samplers":[
		{
			"magFilter":9729,
			"minFilter":9987
		}
	],
	"buffers":[
		{
			"byteLength":41043240,
			"uri":"crystalshroom_scene.bin"
		}
	]
}
