{
    "asset" : {
        "generator" : "Khronos glTF Blender I/O v1.8.19",
        "version" : "2.0"
    },
    "scene" : 0,
    "scenes" : [
        {
            "name" : "Scene",
            "nodes" : [
                0,
                1,
                2,
                3,
                4,
                5
            ]
        }
    ],
    "nodes" : [
        {
            "mesh" : 0,
            "name" : "Static-1",
            "translation" : [
                -16.613073348999023,
                10.027839660644531,
                0
            ]
        },
        {
            "mesh" : 1,
            "name" : "Static-4",
            "scale" : [
                13.417807579040527,
                1,
                1
            ]
        },
        {
            "mesh" : 2,
            "name" : "Static-3",
            "translation" : [
                -5.796746253967285,
                4.273369789123535,
                0
            ]
        },
        {
            "mesh" : 3,
            "name" : "Static-2",
            "translation" : [
                -11.294010162353516,
                6.980978012084961,
                0
            ]
        },
        {
            "mesh" : 4,
            "name" : "Player",
            "scale" : [
                0.7735614776611328,
                0.7735614776611328,
                0.7735614776611328
            ],
            "translation" : [
                -0.0514378547668457,
                6.030200004577637,
                0
            ]
        },
        {
            "mesh" : 5,
            "name" : "Background-1",
            "rotation" : [
                0,
                0,
                -0.7071067690849304,
                0.7071068286895752
            ],
            "scale" : [
                13.417807579040527,
                1,
                1
            ],
            "translation" : [
                -0.23682790994644165,
                7.538257598876953,
                -22.070762634277344
            ]
        }
    ],
    "materials" : [
        {
            "name" : "granite",
            "normalTexture" : {
                "index" : 0
            },
            "occlusionTexture" : {
                "index" : 1
            },
            "pbrMetallicRoughness" : {
                "baseColorTexture" : {
                    "index" : 2
                },
                "metallicRoughnessTexture" : {
                    "index" : 1
                }
            }
        },
        {
            "name" : "granite.001",
            "normalTexture" : {
                "index" : 3
            },
            "pbrMetallicRoughness" : {
                "baseColorTexture" : {
                    "index" : 4
                },
                "metallicRoughnessTexture" : {
                    "index" : 5
                }
            }
        },
        {
            "name" : "granite.002",
            "normalTexture" : {
                "index" : 6
            },
            "pbrMetallicRoughness" : {
                "baseColorTexture" : {
                    "index" : 7
                },
                "metallicRoughnessTexture" : {
                    "index" : 8
                }
            }
        }
    ],
    "meshes" : [
        {
            "name" : "cylinder",
            "primitives" : [
                {
                    "attributes" : {
                        "POSITION" : 0,
                        "NORMAL" : 1,
                        "TANGENT" : 2,
                        "TEXCOORD_0" : 3
                    },
                    "indices" : 4,
                    "material" : 0
                }
            ]
        },
        {
            "name" : "Cube",
            "primitives" : [
                {
                    "attributes" : {
                        "POSITION" : 5,
                        "NORMAL" : 6,
                        "TANGENT" : 7,
                        "TEXCOORD_0" : 8
                    },
                    "indices" : 9,
                    "material" : 0
                }
            ]
        },
        {
            "name" : "Cube.001",
            "primitives" : [
                {
                    "attributes" : {
                        "POSITION" : 10,
                        "NORMAL" : 11,
                        "TANGENT" : 12,
                        "TEXCOORD_0" : 13
                    },
                    "indices" : 9,
                    "material" : 0
                }
            ]
        },
        {
            "name" : "Cube.002",
            "primitives" : [
                {
                    "attributes" : {
                        "POSITION" : 14,
                        "NORMAL" : 15,
                        "TANGENT" : 16,
                        "TEXCOORD_0" : 17
                    },
                    "indices" : 9,
                    "material" : 0
                }
            ]
        },
        {
            "name" : "Cube.003",
            "primitives" : [
                {
                    "attributes" : {
                        "POSITION" : 18,
                        "NORMAL" : 19,
                        "TANGENT" : 20,
                        "TEXCOORD_0" : 21
                    },
                    "indices" : 9,
                    "material" : 1
                }
            ]
        },
        {
            "name" : "Cube.004",
            "primitives" : [
                {
                    "attributes" : {
                        "POSITION" : 22,
                        "NORMAL" : 23,
                        "TANGENT" : 24,
                        "TEXCOORD_0" : 25
                    },
                    "indices" : 9,
                    "material" : 2
                }
            ]
        }
    ],
    "textures" : [
        {
            "sampler" : 0,
            "source" : 0
        },
        {
            "sampler" : 0,
            "source" : 1
        },
        {
            "sampler" : 0,
            "source" : 2
        },
        {
            "sampler" : 0,
            "source" : 0
        },
        {
            "sampler" : 0,
            "source" : 2
        },
        {
            "sampler" : 0,
            "source" : 3
        },
        {
            "sampler" : 0,
            "source" : 0
        },
        {
            "sampler" : 0,
            "source" : 2
        },
        {
            "sampler" : 0,
            "source" : 3
        }
    ],
    "images" : [
        {
            "mimeType" : "image/png",
            "name" : "fleshy_granite1_Normal-ogl",
            "uri" : "../../textures/fleshy_granite1_Normal-ogl.png"
        },
        {
            "mimeType" : "image/png",
            "name" : "fleshy_granite1_ao.png-fleshy_granite1_Roughness-fleshy_granite1_Metallic",
            "uri" : "../../textures/fleshy_granite1_ao_png-fleshy_granite1_Roughness-fleshy_granite1_Metallic.png"
        },
        {
            "mimeType" : "image/png",
            "name" : "fleshy_granite1_albedo",
            "uri" : "../../textures/fleshy_granite1_albedo.png"
        },
        {
            "mimeType" : "image/png",
            "name" : "fleshy_granite1_Metallic.png-fleshy_granite1_Roughness.png",
            "uri" : "../../textures/fleshy_granite1_Metallic_png-fleshy_granite1_Roughness_png.png"
        }
    ],
    "accessors" : [
        {
            "bufferView" : 0,
            "componentType" : 5126,
            "count" : 627,
            "max" : [
                1,
                1.0932903289794922,
                1
            ],
            "min" : [
                -1,
                -1.0932903289794922,
                -1
            ],
            "type" : "VEC3"
        },
        {
            "bufferView" : 1,
            "componentType" : 5126,
            "count" : 627,
            "type" : "VEC3"
        },
        {
            "bufferView" : 2,
            "componentType" : 5126,
            "count" : 627,
            "type" : "VEC4"
        },
        {
            "bufferView" : 3,
            "componentType" : 5126,
            "count" : 627,
            "type" : "VEC2"
        },
        {
            "bufferView" : 4,
            "componentType" : 5123,
            "count" : 3456,
            "type" : "SCALAR"
        },
        {
            "bufferView" : 5,
            "componentType" : 5126,
            "count" : 24,
            "max" : [
                1,
                1,
                1
            ],
            "min" : [
                -1,
                -1,
                -1
            ],
            "type" : "VEC3"
        },
        {
            "bufferView" : 6,
            "componentType" : 5126,
            "count" : 24,
            "type" : "VEC3"
        },
        {
            "bufferView" : 7,
            "componentType" : 5126,
            "count" : 24,
            "type" : "VEC4"
        },
        {
            "bufferView" : 8,
            "componentType" : 5126,
            "count" : 24,
            "type" : "VEC2"
        },
        {
            "bufferView" : 9,
            "componentType" : 5123,
            "count" : 36,
            "type" : "SCALAR"
        },
        {
            "bufferView" : 10,
            "componentType" : 5126,
            "count" : 24,
            "max" : [
                1,
                1,
                1
            ],
            "min" : [
                -1,
                -1,
                -1
            ],
            "type" : "VEC3"
        },
        {
            "bufferView" : 11,
            "componentType" : 5126,
            "count" : 24,
            "type" : "VEC3"
        },
        {
            "bufferView" : 12,
            "componentType" : 5126,
            "count" : 24,
            "type" : "VEC4"
        },
        {
            "bufferView" : 13,
            "componentType" : 5126,
            "count" : 24,
            "type" : "VEC2"
        },
        {
            "bufferView" : 14,
            "componentType" : 5126,
            "count" : 24,
            "max" : [
                1,
                1,
                1
            ],
            "min" : [
                -1,
                -1,
                -1
            ],
            "type" : "VEC3"
        },
        {
            "bufferView" : 15,
            "componentType" : 5126,
            "count" : 24,
            "type" : "VEC3"
        },
        {
            "bufferView" : 16,
            "componentType" : 5126,
            "count" : 24,
            "type" : "VEC4"
        },
        {
            "bufferView" : 17,
            "componentType" : 5126,
            "count" : 24,
            "type" : "VEC2"
        },
        {
            "bufferView" : 18,
            "componentType" : 5126,
            "count" : 24,
            "max" : [
                1,
                1,
                1
            ],
            "min" : [
                -1,
                -1,
                -1
            ],
            "type" : "VEC3"
        },
        {
            "bufferView" : 19,
            "componentType" : 5126,
            "count" : 24,
            "type" : "VEC3"
        },
        {
            "bufferView" : 20,
            "componentType" : 5126,
            "count" : 24,
            "type" : "VEC4"
        },
        {
            "bufferView" : 21,
            "componentType" : 5126,
            "count" : 24,
            "type" : "VEC2"
        },
        {
            "bufferView" : 22,
            "componentType" : 5126,
            "count" : 24,
            "max" : [
                1,
                1,
                1
            ],
            "min" : [
                -1,
                -1,
                -1
            ],
            "type" : "VEC3"
        },
        {
            "bufferView" : 23,
            "componentType" : 5126,
            "count" : 24,
            "type" : "VEC3"
        },
        {
            "bufferView" : 24,
            "componentType" : 5126,
            "count" : 24,
            "type" : "VEC4"
        },
        {
            "bufferView" : 25,
            "componentType" : 5126,
            "count" : 24,
            "type" : "VEC2"
        }
    ],
    "bufferViews" : [
        {
            "buffer" : 0,
            "byteLength" : 7524,
            "byteOffset" : 0
        },
        {
            "buffer" : 0,
            "byteLength" : 7524,
            "byteOffset" : 7524
        },
        {
            "buffer" : 0,
            "byteLength" : 10032,
            "byteOffset" : 15048
        },
        {
            "buffer" : 0,
            "byteLength" : 5016,
            "byteOffset" : 25080
        },
        {
            "buffer" : 0,
            "byteLength" : 6912,
            "byteOffset" : 30096
        },
        {
            "buffer" : 0,
            "byteLength" : 288,
            "byteOffset" : 37008
        },
        {
            "buffer" : 0,
            "byteLength" : 288,
            "byteOffset" : 37296
        },
        {
            "buffer" : 0,
            "byteLength" : 384,
            "byteOffset" : 37584
        },
        {
            "buffer" : 0,
            "byteLength" : 192,
            "byteOffset" : 37968
        },
        {
            "buffer" : 0,
            "byteLength" : 72,
            "byteOffset" : 38160
        },
        {
            "buffer" : 0,
            "byteLength" : 288,
            "byteOffset" : 38232
        },
        {
            "buffer" : 0,
            "byteLength" : 288,
            "byteOffset" : 38520
        },
        {
            "buffer" : 0,
            "byteLength" : 384,
            "byteOffset" : 38808
        },
        {
            "buffer" : 0,
            "byteLength" : 192,
            "byteOffset" : 39192
        },
        {
            "buffer" : 0,
            "byteLength" : 288,
            "byteOffset" : 39384
        },
        {
            "buffer" : 0,
            "byteLength" : 288,
            "byteOffset" : 39672
        },
        {
            "buffer" : 0,
            "byteLength" : 384,
            "byteOffset" : 39960
        },
        {
            "buffer" : 0,
            "byteLength" : 192,
            "byteOffset" : 40344
        },
        {
            "buffer" : 0,
            "byteLength" : 288,
            "byteOffset" : 40536
        },
        {
            "buffer" : 0,
            "byteLength" : 288,
            "byteOffset" : 40824
        },
        {
            "buffer" : 0,
            "byteLength" : 384,
            "byteOffset" : 41112
        },
        {
            "buffer" : 0,
            "byteLength" : 192,
            "byteOffset" : 41496
        },
        {
            "buffer" : 0,
            "byteLength" : 288,
            "byteOffset" : 41688
        },
        {
            "buffer" : 0,
            "byteLength" : 288,
            "byteOffset" : 41976
        },
        {
            "buffer" : 0,
            "byteLength" : 384,
            "byteOffset" : 42264
        },
        {
            "buffer" : 0,
            "byteLength" : 192,
            "byteOffset" : 42648
        }
    ],
    "samplers" : [
        {
            "magFilter" : 9729,
            "minFilter" : 9987
        }
    ],
    "buffers" : [
        {
            "byteLength" : 42840,
            "uri" : "debug_model4.bin"
        }
    ]
}
